<?xml version="1.0" encoding="UTF-8"?>
<svg version="1.1" xmlns="http://www.w3.org/2000/svg" width="1080" height="1080">
<path d="M0 0 C13.15875 -0.0825 26.3175 -0.165 39.875 -0.25 C44.01272949 -0.28641602 48.15045898 -0.32283203 52.41357422 -0.36035156 C57.51000977 -0.37841797 57.51000977 -0.37841797 59.90432739 -0.3817749 C61.55809854 -0.38787234 63.21185316 -0.4018466 64.86550903 -0.42230225 C82.59583227 -0.63044838 82.59583227 -0.63044838 91 4 C91.96292969 4.46921875 92.92585938 4.9384375 93.91796875 5.421875 C103.60250047 11.08924296 108.5956444 17.57321269 112.0546875 28.2578125 C114.33487321 37.28433279 114.42507088 48.58396329 110 57 C102.66123818 67.27724978 94.81508997 70.80411501 83 74 C83.73863281 73.84015625 84.47726563 73.6803125 85.23828125 73.515625 C94.17976167 71.8462114 102.26625787 73.45106193 110.25 77.75 C115.86067602 82.34055311 121.41321057 88.04774471 122.30102539 95.54052734 C122.43945692 98.53299387 122.45832822 101.50452398 122.4375 104.5 C122.45748047 105.51964844 122.47746094 106.53929687 122.49804688 107.58984375 C122.49346302 114.63980658 121.32445846 118.35687583 116.4921875 123.65234375 C109.36441055 129.31668823 100.46620632 131.94275883 92 135 C92.57935303 134.93433838 93.15870605 134.86867676 93.75561523 134.80102539 C98.1880884 134.30283535 102.61926987 133.83120394 107.0625 133.4375 C108.00222656 133.35371094 108.94195312 133.26992188 109.91015625 133.18359375 C110.59980469 133.12300781 111.28945312 133.06242188 112 133 C110.91493917 138.21276645 108.1263522 141.381678 103.97265625 144.54296875 C90.39962393 153.32817602 77.78214432 154.73154581 62.03027344 154.0793457 C60.35458623 154.01385769 58.67696639 154 57 154 C38 154 19 154 0 154 C0 152.02 0 150.04 0 148 C0.64437012 147.75878418 1.28874023 147.51756836 1.95263672 147.26904297 C4.93063185 146.14769583 7.90273839 145.01145297 10.875 143.875 C11.88820312 143.49601563 12.90140625 143.11703125 13.9453125 142.7265625 C21.85450443 139.6845656 30.13253055 136.33124548 36 130 C35.410979 130.31227539 34.82195801 130.62455078 34.21508789 130.94628906 C31.49916892 132.38392508 28.78085832 133.81698214 26.0625 135.25 C25.13630859 135.74113281 24.21011719 136.23226562 23.25585938 136.73828125 C18.93290564 139.01352006 14.59524802 141.26043817 10.18359375 143.359375 C9.18477173 143.83842285 9.18477173 143.83842285 8.16577148 144.32714844 C6 145 6 145 0 145 C0 97.15 0 49.3 0 0 Z M65.9375 77.75 C64.37322266 78.23726562 64.37322266 78.23726562 62.77734375 78.734375 C59.64406579 80.16219787 58.56287092 80.9513735 57 84 C56.34592382 87.44718738 56.34592382 87.44718738 56.0625 91.3125 C55.46235145 97.05498095 54.57459988 102.59558623 53.125 108.1875 C52.81820312 109.37730469 52.51140625 110.56710937 52.1953125 111.79296875 C50.93932125 115.16280147 49.39313411 117.34151838 47 120 C47.33 120.66 47.66 121.32 48 122 C59.74649337 109.9544061 66.06769918 97.48333676 71.37084961 81.76489258 C72.5122842 78.56294044 72.98186001 78.01209332 76 76 C72.11033956 76 69.60244353 76.56922513 65.9375 77.75 Z " fill="#0684F7" transform="translate(126,463)"/>
<path d="M0 0 C2.5 2.75 2.5 2.75 4 5 C4.47308594 4.52949219 4.94617188 4.05898438 5.43359375 3.57421875 C11.30278663 -1.95174647 16.42546167 -4.50095946 24.4375 -5.375 C32.20369827 -4.55750545 38.54134747 -2.71858836 44 3 C47.42574596 7.90179085 49.13146197 12.35462516 49.11352539 18.30957031 C49.11341209 19.5704245 49.11341209 19.5704245 49.11329651 20.85675049 C49.10813522 21.75480408 49.10297394 22.65285767 49.09765625 23.578125 C49.0962413 24.5046991 49.09482635 25.43127319 49.09336853 26.38592529 C49.08777824 29.34064992 49.0752275 32.29529833 49.0625 35.25 C49.05748375 37.25520724 49.05292106 39.26041567 49.04882812 41.265625 C49.03866357 46.17713621 49.01908621 51.08848294 49 56 C42.73 56 36.46 56 30 56 C29.96261719 53.45925781 29.92523437 50.91851563 29.88671875 48.30078125 C29.84046646 45.83170108 29.78924639 43.36277028 29.73754883 40.89379883 C29.70435831 39.18197762 29.67630811 37.47004852 29.65356445 35.75805664 C29.61990968 33.29266521 29.56759026 30.82825719 29.51171875 28.36328125 C29.50532883 27.60163162 29.4989389 26.83998199 29.49235535 26.05525208 C29.36849952 21.54776318 28.77142067 18.59589807 26 15 C23.13065707 13.02438683 20.93942634 12.71730742 17.5 13 C16.37078125 13.061875 16.37078125 13.061875 15.21875 13.125 C11.71854262 14.50536347 10.77903275 16.74606221 9 20 C8.43246937 22.82577001 8.39529641 25.5846904 8.390625 28.4609375 C8.37408875 29.25150543 8.35755249 30.04207336 8.34051514 30.8565979 C8.29222512 33.36281244 8.27070757 35.86842112 8.25 38.375 C8.22182426 40.08206142 8.19189458 41.78909485 8.16015625 43.49609375 C8.08319162 47.664336 8.04250055 51.83069647 8 56 C1.73 56 -4.54 56 -11 56 C-11.03738281 53.45925781 -11.07476563 50.91851563 -11.11328125 48.30078125 C-11.15953354 45.83170108 -11.21075361 43.36277028 -11.26245117 40.89379883 C-11.29564169 39.18197762 -11.32369189 37.47004852 -11.34643555 35.75805664 C-11.38009032 33.29266521 -11.43240974 30.82825719 -11.48828125 28.36328125 C-11.49467117 27.60163162 -11.5010611 26.83998199 -11.50764465 26.05525208 C-11.63150048 21.54776318 -12.22857933 18.59589807 -15 15 C-17.86934293 13.02438683 -20.06057366 12.71730742 -23.5 13 C-24.62921875 13.061875 -24.62921875 13.061875 -25.78125 13.125 C-29.28145738 14.50536347 -30.22096725 16.74606221 -32 20 C-32.56753063 22.82577001 -32.60470359 25.5846904 -32.609375 28.4609375 C-32.62591125 29.25150543 -32.64244751 30.04207336 -32.65948486 30.8565979 C-32.70777488 33.36281244 -32.72929243 35.86842112 -32.75 38.375 C-32.77817574 40.08206142 -32.80810542 41.78909485 -32.83984375 43.49609375 C-32.91680838 47.664336 -32.95749945 51.83069647 -33 56 C-39.27 56 -45.54 56 -52 56 C-52 36.2 -52 16.4 -52 -4 C-45.73 -4 -39.46 -4 -33 -4 C-32.67 -2.35 -32.34 -0.7 -32 1 C-31.48050781 0.65066406 -30.96101562 0.30132813 -30.42578125 -0.05859375 C-29.72839844 -0.51363281 -29.03101563 -0.96867188 -28.3125 -1.4375 C-27.62800781 -1.88996094 -26.94351563 -2.34242188 -26.23828125 -2.80859375 C-18.18382452 -7.09587002 -7.22807292 -5.17019804 0 0 Z " fill="#000000" transform="translate(604,521)"/>
<path d="M0 0 C6.93 -0.061875 13.86 -0.12375 21 -0.1875 C23.17207031 -0.21481201 25.34414063 -0.24212402 27.58203125 -0.27026367 C29.3255152 -0.27903482 31.06900534 -0.28667727 32.8125 -0.29296875 C34.1437793 -0.3159906 34.1437793 -0.3159906 35.50195312 -0.33947754 C42.162929 -0.34224679 48.01910391 0.46393746 53.27734375 4.9375 C53.82519531 5.618125 54.37304688 6.29875 54.9375 7 C55.50339844 7.680625 56.06929688 8.36125 56.65234375 9.0625 C59.96421147 13.82390983 59.4305562 19.44263568 59 25 C57.23728591 30.28814226 54.32159909 32.7347918 50 36 C50.721875 36.515625 51.44375 37.03125 52.1875 37.5625 C56.46838652 41.27260165 59.94548856 45.32101653 61 51 C61.46367055 58.07097585 60.08945607 62.54436112 56.375 68.6875 C50.93046291 73.98875979 44.50610332 75.45656942 37.08215332 75.45263672 C35.69377258 75.42194092 35.69377258 75.42194092 34.27734375 75.390625 C32.96401062 75.38458252 32.96401062 75.38458252 31.62414551 75.37841797 C28.3950464 75.35769977 25.16624917 75.3018564 21.9375 75.25 C14.698125 75.1675 7.45875 75.085 0 75 C0 50.25 0 25.5 0 0 Z M19 15 C19 19.95 19 24.9 19 30 C21.3925 30.04125 23.785 30.0825 26.25 30.125 C26.99668945 30.14320801 27.74337891 30.16141602 28.51269531 30.18017578 C32.16455533 30.21062432 34.99581354 30.19085793 38 28 C39.59921044 24.72888774 40.17156103 22.8387428 39.4375 19.25 C37.56773213 16.32340681 36.30774533 16.00043524 33 15 C29.41569055 14.75917126 29.41569055 14.75917126 25.6875 14.875 C23.480625 14.91625 21.27375 14.9575 19 15 Z M19 44 C19 49.28 19 54.56 19 60 C21.536875 60.061875 24.07375 60.12375 26.6875 60.1875 C27.87218872 60.22846802 27.87218872 60.22846802 29.08081055 60.27026367 C33.62090198 60.3236495 36.37900572 59.74863237 40 57 C41.36997745 55.84254513 41.36997745 55.84254513 41.3125 52.6875 C41.33960164 48.98158462 41.33960164 48.98158462 39.125 46.625 C35.12503607 43.56620405 31.72662145 43.88344427 26.875 43.9375 C22.976875 43.9684375 22.976875 43.9684375 19 44 Z " fill="#000000" transform="translate(269,502)"/>
<path d="M0 0 C10.333125 -0.1546875 10.333125 -0.1546875 20.875 -0.3125 C23.0288623 -0.35802002 25.18272461 -0.40354004 27.40185547 -0.45043945 C38.37713427 -0.58550224 47.13335439 -0.57331333 55.5 7.375 C59.15752388 13.77566679 59.78647765 19.91098358 58 27 C55.96378082 30.93276989 53.1421002 33.92221179 50 37 C50.83144531 37.67095703 50.83144531 37.67095703 51.6796875 38.35546875 C52.40414062 38.96003906 53.12859375 39.56460938 53.875 40.1875 C54.59429688 40.77917969 55.31359375 41.37085938 56.0546875 41.98046875 C59.7777848 45.84561193 60.29230496 49.70698507 60.3125 54.9375 C60.18643583 60.65941246 59.51783539 64.36771755 55.453125 68.6171875 C48.8320611 74.74020677 42.50633381 75.29233235 33.7890625 75.1953125 C32.93014404 75.19329834 32.07122559 75.19128418 31.1862793 75.18920898 C27.99913133 75.1787999 24.81205991 75.15087754 21.625 75.125 C14.48875 75.08375 7.3525 75.0425 0 75 C0 50.25 0 25.5 0 0 Z M19 15 C19 19.95 19 24.9 19 30 C22.3103125 30.0928125 22.3103125 30.0928125 25.6875 30.1875 C26.92886719 30.22230469 28.17023437 30.25710938 29.44921875 30.29296875 C33.49607131 29.95907002 36.11242948 28.88757052 39 26 C39.29629238 22.6667107 39.35806333 20.63087348 37.6875 17.6875 C35.14548696 15.14548696 33.18801716 15.00547198 29.64453125 14.90234375 C24.32226562 14.95117188 24.32226562 14.95117188 19 15 Z M19 44 C19 49.28 19 54.56 19 60 C21.35125 60.061875 23.7025 60.12375 26.125 60.1875 C26.85348145 60.21481201 27.58196289 60.24212402 28.33251953 60.27026367 C32.97893805 60.32886374 36.12122579 59.55646482 40 57 C41.33660145 53.64407137 41.33660145 53.64407137 41 50 C38.91374661 46.57258371 37.8255689 45.27518963 34 44 C31.42502932 43.92964561 28.88550071 43.9065066 26.3125 43.9375 C23.899375 43.958125 21.48625 43.97875 19 44 Z " fill="#0284F8" transform="translate(688,502)"/>
<path d="M0 0 C2.5 1.6875 2.5 1.6875 4 3 C4.33 1.35 4.66 -0.3 5 -2 C11.6 -2 18.2 -2 25 -2 C25 17.8 25 37.6 25 58 C18.4 58 11.8 58 5 58 C4.67 56.35 4.34 54.7 4 53 C3.278125 53.61875 2.55625 54.2375 1.8125 54.875 C-4.66515107 59.76922526 -11.12829319 59.72920799 -19 59 C-26.2030034 57.29117937 -31.00002802 53.12430943 -35 47 C-40.07373125 37.76821089 -40.49686447 26.93771454 -38.3046875 16.77734375 C-35.80798889 9.15087363 -32.07606788 3.38615255 -24.875 -0.375 C-16.55783506 -4.21626092 -8.19664647 -4.10757453 0 0 Z M-17.8125 19.125 C-19.7431833 23.79928587 -20.83068174 28.30728447 -19.3046875 33.25390625 C-17.57747148 36.9463405 -15.850939 40.33472908 -12 42 C-7.70323687 42.56536357 -4.15123016 42.47550811 -0.125 40.8125 C3.20895882 37.96882924 4.76396252 35.88542135 5.3203125 31.44140625 C5.50858775 26.81611083 5.34476718 23.71507266 3.3125 19.5 C0.10129303 16.0284249 -2.19110055 14.23092333 -6.9375 13.625 C-11.57231448 14.1925283 -14.75429327 15.53951625 -17.8125 19.125 Z " fill="#000000" transform="translate(515,519)"/>
<path d="M0 0 C2.5 2.1875 2.5 2.1875 4 4 C4.33 2.02 4.66 0.04 5 -2 C11.27 -2 17.54 -2 24 -2 C24 17.8 24 37.6 24 58 C17.73 58 11.46 58 5 58 C4.67 56.35 4.34 54.7 4 53 C3.278125 53.61875 2.55625 54.2375 1.8125 54.875 C-4.88264197 59.93355171 -11.86938646 59.85118746 -20 59 C-26.82464058 56.95898599 -32.36659922 53.17678133 -36 47 C-40.82233923 36.87308761 -41.86955417 25.86688383 -38.4375 15.125 C-35.07445986 7.08449206 -29.83060037 1.69367942 -22 -2 C-14.65804337 -4.23711971 -6.74403456 -3.71388078 0 0 Z M-16 17 C-16.763125 17.639375 -17.52625 18.27875 -18.3125 18.9375 C-20.9871348 23.79146686 -20.73253009 28.58660262 -20 34 C-18.79168993 37.22421512 -17.13501212 39.31470966 -14.13671875 41.125 C-10.45287719 42.63355669 -6.90615894 42.53805767 -3 42 C0.89382725 40.05308638 2.35324561 37.73541564 3.9375 33.8125 C5.37738767 28.81814675 5.00977316 24.77899976 3 20 C0.90131068 16.94736099 -0.56523646 15.41662825 -4.15234375 14.375 C-8.98929175 13.60237603 -12.13805426 13.68976079 -16 17 Z " fill="#000000" transform="translate(376,519)"/>
<path d="M0 0 C6.27 0 12.54 0 19 0 C19.495 19.8 19.495 19.8 20 40 C22.145 36.535 24.29 33.07 26.5 29.5 C29.94138373 24.50217226 33.15539531 19.90879231 39.11328125 18.00537109 C46.12629956 17.15370117 53.05865243 17.81325909 60 19 C56.64877546 23.51270048 53.26762852 27.9772408 49.6875 32.3125 C48.92953125 33.23289062 48.1715625 34.15328125 47.390625 35.1015625 C46.60171875 36.05804687 45.8128125 37.01453125 45 38 C43.31060643 40.0609573 41.62413844 42.12428506 39.9375 44.1875 C38.625 45.79166667 37.3125 47.39583333 36 49 C39.87443316 54.43940028 44.10877741 59.39889907 48.609375 64.328125 C60 77.05882353 60 77.05882353 60 79 C38.73334006 80.62550905 38.73334006 80.62550905 32.90625 77.16015625 C30.88957337 74.54426218 29.46828189 71.9560888 28 69 C26.52966288 66.93686851 25.029696 64.89451304 23.5 62.875 C22.345 61.26625 21.19 59.6575 20 58 C19.67 64.93 19.34 71.86 19 79 C12.73 79 6.46 79 0 79 C0 52.93 0 26.86 0 0 Z " fill="#0284F8" transform="translate(894,498)"/>
<path d="M0 0 C7.26 0 14.52 0 22 0 C23.55356196 4.01827392 25.10350673 8.03759072 26.64477539 12.06054688 C27.16943416 13.42688952 27.6960982 14.792464 28.22485352 16.15722656 C28.98730588 18.12623645 29.74235226 20.09795425 30.49609375 22.0703125 C30.95169678 23.25383301 31.4072998 24.43735352 31.87670898 25.65673828 C32.92907095 28.7888932 33.56256566 31.73121205 34 35 C34.66 35 35.32 35 36 35 C36.11335693 34.1529248 36.22671387 33.30584961 36.34350586 32.43310547 C37.04509219 28.76419252 38.16238802 25.55517595 39.50390625 22.0703125 C39.7466478 21.43511688 39.98938934 20.79992126 40.23948669 20.14547729 C41.00856593 18.13658597 41.78538685 16.13079531 42.5625 14.125 C43.08840705 12.75540652 43.61380284 11.38561661 44.13867188 10.015625 C45.41894414 6.67437732 46.70966375 3.33744301 48 0 C54.93 0 61.86 0 69 0 C67.13653389 5.59039833 65.34286963 10.77480349 63.0234375 16.12890625 C62.74063431 16.78502396 62.45783112 17.44114166 62.16645813 18.11714172 C61.55676916 19.53066677 60.94544317 20.94348667 60.33261108 22.35565186 C59.01405271 25.39431562 57.7037489 28.43651584 56.39305115 31.47857666 C55.69515796 33.09832845 54.99687857 34.71791389 54.29823303 36.33734131 C50.44213401 45.28012449 46.62939922 54.24126771 42.82183838 63.20480347 C41.70207494 65.84069105 40.5813065 68.47614967 39.46044922 71.11157227 C38.76913558 72.7384142 38.07788872 74.36528452 37.38671875 75.9921875 C37.07277664 76.73028152 36.75883453 77.46837555 36.43537903 78.22883606 C34.91733282 81.80551328 33.44324863 85.39187843 32 89 C25.07 89 18.14 89 11 89 C14.35711061 78.92866817 14.35711061 78.92866817 16.296875 74.9921875 C16.69777344 74.15042969 17.09867187 73.30867187 17.51171875 72.44140625 C18.34326082 70.7179894 19.18457066 68.99925427 20.03515625 67.28515625 C20.43089844 66.44597656 20.82664062 65.60679687 21.234375 64.7421875 C21.59756836 63.9982373 21.96076172 63.25428711 22.33496094 62.48779297 C24.12781159 55.78105725 20.77459635 49.53550409 18.10546875 43.515625 C17.71684158 42.61938416 17.32821442 41.72314331 16.92781067 40.79974365 C15.68904718 37.94626235 14.43895959 35.09793311 13.1875 32.25 C11.55151856 28.50714537 9.92050367 24.76215979 8.29296875 21.015625 C7.90648163 20.12725952 7.51999451 19.23889404 7.12179565 18.3236084 C4.50922745 12.28106145 2.12980878 6.23187885 0 0 Z " fill="#000000" transform="translate(405,517)"/>
<path d="M0 0 C6.50206468 5.34614207 11.38957357 10.8257602 12.8125 19.3125 C13.77878571 29.50681419 12.86830112 39.26551478 6.5625 47.6875 C-1.56554551 55.4460889 -9.8005043 57.73118803 -20.78491211 57.67602539 C-29.72618724 57.45888703 -35.83931076 54.44610241 -42.39453125 48.375 C-48.53199688 41.31490882 -50.5343325 33.14182692 -50.3984375 23.99609375 C-49.76204905 15.89981848 -46.9064857 9.10608117 -41.1875 3.3125 C-29.0811159 -6.77615341 -13.80564837 -7.30887267 0 0 Z M-27.1875 15.3125 C-30.73658163 20.33016714 -30.90131318 25.38013373 -30.1875 31.3125 C-28.66539256 35.49829545 -27.10824009 38.12149819 -23.1875 40.3125 C-19.61818216 41.6630527 -18.24343466 41.33178781 -14.5625 40.0625 C-10.92560417 38.17670216 -8.84166852 37.00600169 -7.3515625 33.1484375 C-5.98200468 26.89610833 -5.91240257 21.9747283 -9.1875 16.3125 C-12.44357054 13.27843427 -14.34256647 12.41626377 -18.75 11.875 C-22.49271864 12.35134601 -24.29817212 12.90472677 -27.1875 15.3125 Z " fill="#0284F8" transform="translate(872.1875,520.6875)"/>
<path d="M0 0 C6.50206468 5.34614207 11.38957357 10.8257602 12.8125 19.3125 C13.77878571 29.50681419 12.86830112 39.26551478 6.5625 47.6875 C-1.56554551 55.4460889 -9.8005043 57.73118803 -20.78491211 57.67602539 C-29.72618724 57.45888703 -35.83931076 54.44610241 -42.39453125 48.375 C-48.53199688 41.31490882 -50.5343325 33.14182692 -50.3984375 23.99609375 C-49.76204905 15.89981848 -46.9064857 9.10608117 -41.1875 3.3125 C-29.0811159 -6.77615341 -13.80564837 -7.30887267 0 0 Z M-27.1875 15.3125 C-30.73658163 20.33016714 -30.90131318 25.38013373 -30.1875 31.3125 C-28.66539256 35.49829545 -27.10824009 38.12149819 -23.1875 40.3125 C-19.61818216 41.6630527 -18.24343466 41.33178781 -14.5625 40.0625 C-10.92560417 38.17670216 -8.84166852 37.00600169 -7.3515625 33.1484375 C-5.98200468 26.89610833 -5.91240257 21.9747283 -9.1875 16.3125 C-12.44357054 13.27843427 -14.34256647 12.41626377 -18.75 11.875 C-22.49271864 12.35134601 -24.29817212 12.90472677 -27.1875 15.3125 Z " fill="#0284F8" transform="translate(804.1875,520.6875)"/>
</svg>
